<?xml version="1.0" encoding="utf-8"?>
<!-- Generator: Adobe Illustrator 16.0.0, SVG Export Plug-In . SVG Version: 6.00 Build 0)  -->
<!DOCTYPE svg PUBLIC "-//W3C//DTD SVG 1.1//EN" "http://www.w3.org/Graphics/SVG/1.1/DTD/svg11.dtd">
<svg version="1.1" id="レイヤー_1" xmlns="http://www.w3.org/2000/svg" xmlns:xlink="http://www.w3.org/1999/xlink" x="0px"
	 y="0px" width="1024px" height="1024px" viewBox="0 0 1024 1024" style="enable-background:new 0 0 1024 1024;"
	 xml:space="preserve">
<style type="text/css">
<![CDATA[
	.st0{fill:#B1F07E;}
	.st1{clip-path:url(#SVGID_2_);}
	.st2{fill:#FF8BAE;}
	.st3{fill:#FF9D53;}
	.st4{fill:#FFE665;}
	.st5{fill:#FFFFFF;}
	.st6{fill:#65CA77;}
	.st7{fill:#666666;}
	.st8{fill:#68ACFF;}
	.st9{fill:#7279F5;}
]]>
</style>
<g>
	<defs>
		<path id="SVGID_1_" d="M924,1024H100C45,1024,0,979,0,924V100C0,45,45,0,100,0h824c55,0,100,45,100,100v824
			C1024,979,979,1024,924,1024z"/>
	</defs>
	<clipPath id="SVGID_2_">
		<use xlink:href="#SVGID_1_"  style="overflow:visible;"/>
	</clipPath>
	<g class="st1">
		<rect class="st5" width="1024" height="1024"/>
		<g>
			<g>
				<g>
					<path class="st7" d="M779.236,864.229l90.074-90.146l-31.298-31.308c114.894-158.37,101.01-381.776-41.695-524.373
						C638.243,60.451,381.201,60.549,223.26,218.621C65.345,376.643,65.447,633.729,223.479,791.662
						c142.727,142.596,366.145,156.299,524.442,41.275L779.236,864.229z M270.813,744.275
						c-132.12-132.01-132.206-346.179-0.184-478.34c132.033-132.148,346.222-132.226,478.372-0.185
						c132.119,132.061,132.186,346.229,0.184,478.345C617.135,876.246,402.946,876.323,270.813,744.275z"/>
					<path class="st7" d="M977.646,1078.538L797.842,872.986l82.373-82.431l205.135,180.198
						c27.891,21.533,23.805,60.35-11.051,95.237C1039.46,1100.851,999.205,1106.436,977.646,1078.538z"/>
				</g>
				<g>
					<path class="st0" d="M349.789,338.246c-18.41-40.262-13.291-97.345,26.939-115.747c40.233-18.397,87.372,14.786,105.785,55.045
						c34.464,76.022,8.493,180.027,20.416,219.788C480.67,462.388,384.857,414.922,349.789,338.246z"/>
					<path class="st4" d="M534.221,280.152c18.507-40.219,65.109-73.576,105.299-55.088c40.191,18.492,45.789,75.867,27.287,116.086
						C631.671,416.865,535.898,465.027,513.541,500C525.507,460.333,498.98,356.749,534.221,280.152z"/>
					<path class="st3" d="M699.591,375.494c42.116-13.65,98.23-1.99,111.872,40.094c13.641,42.085-24.752,85.086-66.866,98.738
						c-79.485,25.479-179.808-12.306-220.676-5.042C561.198,491.198,619.389,401.492,699.591,375.494z"/>
					<path class="st2" d="M733.566,569.025c37.298,23.854,63.936,74.6,40.1,111.87c-23.837,37.269-81.436,34.933-118.734,11.079
						c-70.167-45.202-104.716-146.683-136.287-173.633C556.293,535.641,662.538,523.598,733.566,569.025z"/>
					<path class="st9" d="M279.945,569.025c-37.299,23.854-63.936,74.6-40.101,111.87c23.837,37.269,81.437,34.933,118.734,11.079
						c70.169-45.202,104.717-146.683,136.287-173.633C457.217,535.641,350.973,523.598,279.945,569.025z"/>
					<path class="st8" d="M579.476,727.211c-0.308,44.271-29.049,93.855-73.284,93.551c-44.244-0.311-72.963-50.292-72.656-94.563
						c0.85-83.466,68.311-166.782,74.287-207.858C513.245,559.416,580.062,642.9,579.476,727.211z"/>
					<path class="st6" d="M318.342,374.142c-42.115-13.65-98.229-1.989-111.87,40.095c-13.642,42.085,24.751,85.085,66.864,98.738
						c79.488,25.479,179.809-12.304,220.678-5.042C456.736,489.846,398.547,400.142,318.342,374.142z"/>
				</g>
			</g>
		</g>
	</g>
</g>
<g>
</g>
<g>
</g>
<g>
</g>
<g>
</g>
<g>
</g>
<g>
</g>
<g>
</g>
<g>
</g>
<g>
</g>
<g>
</g>
<g>
</g>
<g>
</g>
<g>
</g>
<g>
</g>
<g>
</g>
</svg>
